<svg xmlns="http://www.w3.org/2000/svg" viewBox="0 0 200 200" width="200" height="200">
  <!-- Outer circle -->
  <circle cx="100" cy="100" r="95" fill="none" stroke="#059669" stroke-width="8"/>
  
  <!-- Brain outline with medical cross -->
  <g fill="none" stroke="#059669" stroke-width="4" stroke-linecap="round" stroke-linejoin="round">
    <!-- Left hemisphere -->
    <path d="M 60 80 Q 50 70, 55 60 Q 60 50, 70 55 Q 75 60, 70 70 Z"/>
    <path d="M 70 95 Q 60 90, 58 80 Q 60 70, 68 75 Z"/>
    <path d="M 65 110 Q 55 105, 53 95 Q 55 85, 63 90 Z"/>
    
    <!-- Right hemisphere -->
    <path d="M 140 80 Q 150 70, 145 60 Q 140 50, 130 55 Q 125 60, 130 70 Z"/>
    <path d="M 130 95 Q 140 90, 142 80 Q 140 70, 132 75 Z"/>
    <path d="M 135 110 Q 145 105, 147 95 Q 145 85, 137 90 Z"/>
    
    <!-- Neural connections -->
    <circle cx="65" cy="70" r="3" fill="#059669"/>
    <circle cx="80" cy="65" r="3" fill="#059669"/>
    <circle cx="75" cy="85" r="3" fill="#059669"/>
    <circle cx="135" cy="70" r="3" fill="#059669"/>
    <circle cx="120" cy="65" r="3" fill="#059669"/>
    <circle cx="125" cy="85" r="3" fill="#059669"/>
    
    <!-- Medical stethoscope integrated -->
    <path d="M 85 110 Q 85 95, 100 90 Q 115 95, 115 110" stroke-width="5"/>
    <circle cx="85" cy="115" r="8" fill="none" stroke="#059669" stroke-width="4"/>
    <circle cx="115" cy="115" r="8" fill="none" stroke="#059669" stroke-width="4"/>
    <path d="M 100 90 L 100 125" stroke-width="4"/>
    <circle cx="100" cy="130" r="10" fill="none" stroke="#059669" stroke-width="4"/>
    
    <!-- Gear/AI symbol -->
    <circle cx="125" cy="125" r="8" fill="none" stroke="#059669" stroke-width="3"/>
    <circle cx="125" cy="125" r="3" fill="#059669"/>
    <line x1="125" y1="117" x2="125" y2="114" stroke="#059669" stroke-width="2"/>
    <line x1="125" y1="133" x2="125" y2="136" stroke="#059669" stroke-width="2"/>
    <line x1="117" y1="125" x2="114" y2="125" stroke="#059669" stroke-width="2"/>
    <line x1="133" y1="125" x2="136" y2="125" stroke="#059669" stroke-width="2"/>
  </g>
</svg>
